REM MD5 84baaddcf164088bbdf9d94b8aa92b06
FILE "Dengeki PlayStation D28 (Japan).bin" BINARY
  TRACK 01 MODE2/2352
    INDEX 01 00:00:00
  TRACK 02 AUDIO
    INDEX 00 55:06:53
    INDEX 01 55:08:53
  TRACK 03 AUDIO
    INDEX 00 56:34:36
    INDEX 01 56:36:36
REM LEADOUT 59:33:18
